<svg width="210" height="223" viewBox="0 0 210 223" fill="none" xmlns="http://www.w3.org/2000/svg">
<rect x="4.5" y="17.5" width="201" height="201" rx="32.5" fill="#F2F2F2" stroke="#282828" stroke-width="9" stroke-linejoin="round"/>
<path d="M31.0342 63.918C32.3525 64.0234 34.541 64.1553 37.5996 64.3135C40.7109 64.4717 43.5059 64.5508 45.9844 64.5508H55.3184L58.4033 67.4775C58.0869 70.6943 57.8232 74.7285 57.6123 79.5801C57.4014 84.4316 57.2959 88.6504 57.2959 92.2363V159.947C57.2959 162.953 57.4014 166.196 57.6123 169.677C57.8232 173.104 58.0342 175.583 58.2451 177.112L70.9014 178.22L69.7939 187.791C68.8447 187.686 66.4717 187.527 62.6748 187.316C58.8779 187.105 54.2637 187 48.832 187C46.0371 187.105 42.7412 187.237 38.9443 187.396C35.2002 187.554 32.5107 187.686 30.876 187.791L30.085 179.723L42.583 177.112C42.8994 175.688 43.2422 173.632 43.6113 170.942C43.9805 168.253 44.165 166.196 44.165 164.772V87.332C44.165 85.9082 43.9541 83.7461 43.5322 80.8457C43.1104 77.9453 42.7939 76.0205 42.583 75.0713L30.2432 72.4609L31.0342 63.918ZM79.6816 106.475C80.8418 106.475 82.8721 106.554 85.7725 106.712C88.7256 106.87 91.3887 106.949 93.7617 106.949C99.1406 106.949 103.649 106.844 107.288 106.633C110.979 106.422 113.326 106.264 114.328 106.158L114.803 115.571L102.621 116.837C99.6152 118.472 96.5039 120.344 93.2871 122.453C90.123 124.562 87.9082 126.303 86.6426 127.674L73.5117 141.833L95.6602 166.117C96.3984 166.855 99.4834 169.281 104.915 173.395C104.915 173.395 106.708 174.687 110.294 177.271L120.498 178.22L119.312 187.791C118.362 187.686 115.989 187.527 112.192 187.316C108.448 187.105 103.86 187 98.4287 187L81.8965 187.316L81.1055 179.248L90.3604 177.429L82.0547 168.332L59.1152 144.048L85.7725 116.204L78.8115 114.938L79.6816 106.475Z" fill="black"/>
</svg>
